<?xml version="1.0" standalone="no"?>
<!DOCTYPE svg PUBLIC "-//W3C//DTD SVG 20010904//EN"
 "http://www.w3.org/TR/2001/REC-SVG-20010904/DTD/svg10.dtd">
<svg version="1.0" xmlns="http://www.w3.org/2000/svg"
 width="1025.000000pt" height="1025.000000pt" viewBox="0 0 1025.000000 1025.000000"
 preserveAspectRatio="xMidYMid meet">
<metadata>
Created by potrace 1.14, written by Peter Selinger 2001-2017
</metadata>
<g transform="translate(0.000000,1025.000000) scale(0.100000,-0.100000)"
fill="#000000" stroke="none">
<path d="M2697 10244 c-1 -1 -47 -4 -102 -8 -55 -3 -111 -8 -125 -10 -14 -3
-47 -7 -74 -11 -275 -34 -597 -138 -874 -281 -716 -370 -1235 -1024 -1431
-1802 -32 -125 -37 -148 -56 -272 -3 -19 -7 -48 -10 -64 -3 -15 -8 -72 -12
-125 -10 -127 -10 -4968 0 -5091 10 -130 27 -243 58 -385 99 -448 345 -928
643 -1254 291 -318 595 -535 1007 -719 46 -21 241 -91 269 -97 8 -2 42 -10 75
-20 87 -24 165 -42 205 -49 134 -22 238 -36 320 -42 122 -10 4921 -10 5060 0
112 7 133 10 237 26 539 86 1051 334 1451 705 112 104 250 253 314 340 4 6 18
24 31 40 42 53 132 188 167 250 19 33 40 69 47 80 63 109 223 484 223 523 0 5
9 38 20 73 11 34 23 77 26 93 3 17 9 47 14 66 15 58 40 214 48 297 9 102 9
5158 0 5243 -71 632 -352 1219 -799 1669 -75 76 -193 181 -254 226 -22 17 -42
32 -45 36 -10 10 -195 137 -235 160 -253 144 -414 215 -641 284 -122 37 -367
89 -464 99 -30 3 -80 9 -110 12 -42 6 -4976 13 -4983 8z"/>
</g>
</svg>
